# Blender 3.4.1
# www.blender.org
o barracks
v -1.500000 0.000000 1.500000
v -1.500000 2.000000 1.500000
v -1.500000 0.000000 -1.500000
v -1.500000 2.000000 -1.500000
v 1.500000 0.000000 1.500000
v 1.500000 2.000000 1.500000
v 1.500000 0.000000 -1.500000
v 1.500000 2.000000 -1.500000
v -1.700000 -0.000000 -1.300000
v -1.700000 1.800000 -1.300000
v -1.700000 -0.000000 -1.700000
v -1.700000 1.800000 -1.700000
v -1.300000 -0.000000 -1.300000
v -1.300000 1.800000 -1.300000
v -1.300000 -0.000000 -1.700000
v -1.300000 1.800000 -1.700000
v -1.700000 2.200000 -1.300000
v -1.700000 2.200000 -1.700000
v -1.300000 2.200000 -1.300000
v -1.300000 2.200000 -1.700000
v 1.300000 1.800000 -1.300000
v 1.300000 1.800000 -1.700000
v 1.300000 2.200000 -1.300000
v 1.300000 2.200000 -1.700000
v 1.700000 1.800000 -1.300000
v 1.700000 1.800000 -1.700000
v 1.700000 2.200000 -1.300000
v 1.700000 2.200000 -1.700000
v 1.300000 -0.000000 -1.300000
v 1.300000 -0.000000 -1.700000
v 1.700000 -0.000000 -1.300000
v 1.700000 -0.000000 -1.700000
v -1.700000 1.800000 1.300000
v -1.300000 1.800000 1.300000
v -1.700000 2.200000 1.300000
v -1.300000 2.200000 1.300000
v 1.300000 1.800000 1.300000
v 1.300000 2.200000 1.300000
v 1.700000 1.800000 1.300000
v 1.700000 2.200000 1.300000
v -1.700000 1.800000 1.700000
v -1.300000 1.800000 1.700000
v -1.700000 2.200000 1.700000
v -1.300000 2.200000 1.700000
v 1.300000 1.800000 1.700000
v 1.300000 2.200000 1.700000
v 1.700000 1.800000 1.700000
v 1.700000 2.200000 1.700000
v -1.700000 -0.000000 1.300000
v -1.300000 -0.000000 1.300000
v 1.300000 -0.000000 1.300000
v 1.700000 -0.000000 1.300000
v -1.700000 -0.000000 1.700000
v -1.300000 -0.000000 1.700000
v 1.300000 -0.000000 1.700000
v 1.700000 -0.000000 1.700000
vn -1.0000 -0.0000 -0.0000
vn -0.0000 -0.0000 -1.0000
vn 1.0000 -0.0000 -0.0000
vn -0.0000 -0.0000 1.0000
vn -0.0000 -1.0000 -0.0000
vn -0.0000 1.0000 -0.0000
vt 0.746368 0.557049
vt 0.499990 0.125106
vt 0.000015 0.499994
vt 0.625000 0.557049
vt 0.378622 0.125106
vt 0.250006 0.875007
vt 0.746368 0.374997
vt 0.746367 0.307107
vt 0.000015 0.250016
vt 0.625000 0.374997
vt 0.624998 0.307107
vt 0.250006 0.625008
vt 0.500008 0.375005
vt 0.499990 0.307158
vt 0.249993 0.499994
vt 0.378640 0.375005
vt 0.378622 0.307158
vt 0.000007 0.875007
vt 0.746367 0.125054
vt 0.500008 0.557057
vt 0.249993 0.250016
vt 0.624998 0.125054
vt 0.378640 0.557057
vt 0.000007 0.625008
vt 0.104070 0.094767
vt 0.206395 0.164535
vt 0.206395 0.206395
vt 0.197093 0.104070
vt 0.145930 0.094767
vt 0.104070 0.104070
vt 0.076163 0.104070
vt 0.118023 0.104070
vt 0.145930 0.104070
vt 0.197093 0.164535
vt 0.215698 0.164535
vt 0.197093 0.206395
vt 0.215698 0.206395
vt 0.206395 0.104070
vt 0.187791 0.104070
vt 0.215698 0.085465
vt 0.076163 0.113372
vt 0.206395 0.164535
vt 0.206395 0.206395
vt 0.197093 0.104070
vt 0.118023 0.113372
vt 0.155233 0.094767
vt 0.104070 0.034302
vt 0.104070 0.025000
vt 0.127326 0.104070
vt 0.155233 0.104070
vt 0.178488 0.104070
vt 0.206395 0.085465
vt 0.094767 0.034302
vt 0.094767 0.025000
vt 0.127326 0.113372
vt 0.164535 0.025000
vt 0.187791 0.164535
vt 0.187791 0.206395
vt 0.034302 0.225000
vt 0.215698 0.025000
vt 0.197093 0.164535
vt 0.178488 0.206395
vt 0.118023 0.173837
vt 0.178488 0.164535
vt 0.155233 0.025000
vt 0.034302 0.034302
vt 0.127326 0.173837
vt 0.034302 0.025000
vt 0.043605 0.225000
vt 0.225000 0.025000
vt 0.066860 0.113372
vt 0.118023 0.183139
vt 0.066860 0.104070
vt 0.025000 0.034302
vt 0.076163 0.113372
vt 0.076163 0.104070
vt 0.127326 0.183139
vt 0.025000 0.025000
vt 0.187791 0.164535
vt 0.034302 0.183139
vt 0.178488 0.164535
vt 0.076163 0.173837
vt 0.043605 0.183139
vt 0.025000 0.113372
vt 0.076163 0.183139
vt 0.025000 0.104070
vt 0.197093 0.164535
vt 0.145930 0.034302
vt 0.197093 0.206395
vt 0.206395 0.164535
vt 0.215698 0.025000
vt 0.225000 0.104070
vt 0.034302 0.225000
vt 0.187791 0.206395
vt 0.215698 0.164535
vt 0.155233 0.034302
vt 0.104070 0.094767
vt 0.206395 0.025000
vt 0.206395 0.164535
vt 0.094767 0.094767
vt 0.215698 0.085465
vt 0.225000 0.164535
vt 0.052907 0.225000
vt 0.164535 0.085465
vt 0.215698 0.104070
vt 0.155233 0.085465
vt 0.206395 0.104070
vt 0.034302 0.094767
vt 0.225000 0.085465
vt 0.043605 0.225000
vt 0.066860 0.173837
vt 0.025000 0.094767
vt 0.076163 0.173837
vt 0.145930 0.025000
vt 0.169186 0.183139
vt 0.215698 0.104070
vt 0.025000 0.225000
vt 0.169186 0.173837
vt 0.178488 0.183139
vt 0.155233 0.025000
vt 0.104070 0.104070
vt 0.178488 0.173837
vt 0.094767 0.104070
vt 0.215698 0.164535
vt 0.164535 0.094767
vt 0.169186 0.113372
vt 0.155233 0.094767
vt 0.178488 0.113372
vt 0.034302 0.104070
vt 0.066860 0.183139
vt 0.169186 0.104070
vt 0.178488 0.104070
vt 0.025000 0.104070
vt 0.076163 0.183139
vt 0.104070 0.034302
vt 0.197093 0.164535
vt 0.034302 0.183139
vt 0.187791 0.164535
vt 0.052907 0.183139
vt 0.206395 0.085465
vt 0.043605 0.183139
vt 0.025000 0.173837
vt 0.104070 0.025000
vt 0.127326 0.183139
vt 0.025000 0.183139
vt 0.127326 0.173837
vt 0.127326 0.113372
vt 0.206395 0.094767
vt 0.025000 0.183139
vt 0.127326 0.104070
s 0
f 1/1/1 2/4/1 4/10/1 3/7/1
f 3/8/2 4/11/2 8/22/2 7/19/2
f 7/20/3 8/23/3 6/16/3 5/13/3
f 5/14/4 6/17/4 2/5/4 1/2/4
f 3/9/5 7/21/5 5/15/5 1/3/5
f 8/24/6 4/12/6 2/6/6 6/18/6
f 9/25/1 10/29/1 12/33/1 11/30/1
f 11/31/2 12/32/2 16/45/2 15/41/2
f 15/42/3 16/43/3 14/36/3 13/34/3
f 13/35/4 14/37/4 10/27/4 9/26/4
f 10/28/5 14/38/5 34/90/5 33/87/5
f 20/54/6 18/48/6 17/47/6 19/53/6
f 16/45/2 12/32/2 18/49/2 20/55/2
f 19/51/4 14/39/4 21/57/4 23/64/4
f 12/33/1 10/29/1 17/46/1 18/50/1
f 23/65/1 21/56/1 37/104/1 38/106/1
f 20/54/6 19/53/6 23/66/6 24/68/6
f 14/39/5 16/44/5 22/61/5 21/57/5
f 16/45/2 20/55/2 24/67/2 22/63/2
f 25/71/3 26/73/3 28/76/3 27/75/3
f 21/58/1 22/62/1 30/81/1 29/79/1
f 22/63/2 24/67/2 28/77/2 26/72/2
f 24/68/6 23/66/6 27/74/6 28/78/6
f 22/63/2 26/72/2 32/85/2 30/82/2
f 25/69/4 21/59/4 29/80/4 31/83/4
f 26/73/3 25/71/3 31/84/3 32/86/3
f 38/106/1 37/104/1 45/125/1 46/127/1
f 14/40/3 19/52/3 36/98/3 34/91/3
f 17/46/1 10/29/1 33/88/1 35/96/1
f 19/53/6 17/47/6 35/97/6 36/100/6
f 41/114/1 33/88/1 49/135/1 53/143/1
f 27/74/6 23/66/6 38/108/6 40/112/6
f 21/60/5 25/70/5 39/109/5 37/101/5
f 25/71/3 27/75/3 40/113/3 39/111/3
f 41/115/4 42/118/4 44/122/4 43/119/4
f 46/128/4 45/126/4 47/131/4 48/132/4
f 42/116/5 34/92/5 37/102/5 45/124/5
f 40/112/6 38/108/6 46/129/6 48/133/6
f 37/103/2 39/110/2 52/141/2 51/139/2
f 39/111/3 40/113/3 48/134/3 47/130/3
f 35/96/1 33/88/1 41/114/1 43/120/1
f 36/100/6 35/97/6 43/121/6 44/123/6
f 34/93/3 42/117/3 54/145/3 50/137/3
f 39/111/3 47/130/3 56/149/3 52/142/3
f 33/89/2 34/94/2 50/138/2 49/136/2
f 47/131/4 45/126/4 55/147/4 56/150/4
f 42/118/4 41/115/4 53/144/4 54/146/4
f 45/125/1 37/104/1 51/140/1 55/148/1
f 34/95/2 36/99/2 38/107/2 37/105/2
f 44/122/4 42/118/4 45/126/4 46/128/4
f 36/100/6 44/123/6 46/129/6 38/108/6
