# Blender 3.4.1
# www.blender.org
o field
v -2.200000 -0.002563 2.400000
v -2.200000 1.502563 2.400000
v -2.200000 -0.002563 0.400000
v -2.200000 1.502563 0.400000
v -0.800000 -0.002563 2.400000
v -0.800000 1.502563 2.400000
v -0.800000 -0.002563 0.400000
v -0.800000 1.502563 0.400000
v -2.610000 1.202563 2.677760
v -2.610000 1.202563 0.122240
v -0.390000 1.202563 2.677760
v -0.390000 1.202563 0.122240
v -2.592000 1.402563 0.202100
v -2.592000 1.402563 2.597900
v -0.408000 1.402563 0.202100
v -0.408000 1.402563 2.597900
v -1.500000 1.902563 2.576120
v -1.500000 1.902563 0.223880
v -1.500000 2.102563 2.489000
v -1.500000 2.102563 0.311000
v -0.900000 -0.002563 2.300000
v -0.900000 1.302563 2.300000
v -0.700000 -0.002563 2.300000
v -0.700000 1.302563 2.300000
v -0.900000 -0.002563 2.500000
v -0.900000 1.302563 2.500000
v -0.700000 -0.002563 2.500000
v -0.700000 1.302563 2.500000
v -2.300000 -0.002563 2.300000
v -2.300000 1.302563 2.300000
v -2.100000 -0.002563 2.300000
v -2.100000 1.302563 2.300000
v -2.300000 -0.002563 2.500000
v -2.300000 1.302563 2.500000
v -2.100000 -0.002563 2.500000
v -2.100000 1.302563 2.500000
v -0.700000 1.302563 0.300000
v -0.700000 -0.002563 0.300000
v -0.900000 1.302563 0.300000
v -0.900000 -0.002563 0.300000
v -0.900000 -0.002563 0.500000
v -2.300000 1.502563 0.300000
v -0.700000 -0.002563 0.500000
v -0.700000 1.302563 0.500000
v -2.300000 -0.002563 0.300000
v -2.300000 1.302563 0.300000
v -2.100000 -0.002563 0.300000
v -2.100000 1.302563 0.300000
v -2.300000 -0.002563 0.500000
v -2.100000 1.602563 0.300000
v -2.100000 -0.002563 0.500000
v -2.100000 1.302563 0.500000
v -0.900000 1.502563 2.300000
v -0.700000 1.502563 2.300000
v -0.900000 1.502563 2.500000
v -0.700000 1.502563 2.500000
v -2.300000 1.502563 2.300000
v -2.100000 1.502563 2.300000
v -2.300000 1.502563 2.500000
v -2.100000 1.502563 2.500000
v -0.700000 1.502563 0.300000
v -0.900000 1.502563 0.300000
v -2.300000 1.502563 2.300000
v -0.700000 1.502563 0.500000
v -2.300000 1.502563 0.300000
v -2.100000 1.502563 0.300000
v -2.300000 1.502563 0.500000
v -2.100000 1.502563 0.500000
v -2.100000 1.602563 2.300000
v -0.700000 1.502563 2.300000
v -0.900000 1.602563 2.300000
v -0.900000 1.502563 0.500000
v -2.300000 1.302563 0.500000
v -0.900000 1.602563 2.500000
v -0.700000 1.502563 2.500000
v -0.900000 1.302563 0.500000
v -2.100000 1.602563 2.500000
v -2.300000 1.502563 2.500000
v -0.700000 1.502563 0.300000
v -0.900000 1.602563 0.300000
v -0.700000 1.502563 0.500000
v -2.100000 1.602563 0.500000
v -2.300000 1.502563 0.500000
v -0.900000 1.602563 0.500000
v -2.200000 1.602563 2.400000
v -2.200000 1.602563 0.400000
v -0.800000 1.602563 2.400000
v -0.800000 1.602563 0.400000
v -1.500000 2.002563 2.500000
v -1.500000 2.002563 0.300000
v 2.300000 0.000000 2.300000
v 2.300000 0.000000 -2.300000
v 2.300000 0.500000 -2.300000
v 2.500000 0.000000 2.300000
v 2.500000 0.500000 2.300000
v 2.500000 0.000000 -2.300000
v 2.500000 0.500000 -2.300000
v 2.300000 0.000000 -2.500000
v 2.300000 0.500000 -2.500000
v 2.500000 0.000000 -2.500000
v 2.500000 0.500000 -2.500000
v -2.300000 0.000000 -2.300000
v -2.300000 0.500000 -2.300000
v -2.300000 0.000000 -2.500000
v -2.300000 0.500000 -2.500000
v -2.500000 0.000000 -2.300000
v -2.500000 0.500000 -2.300000
v -2.500000 0.000000 -2.500000
v -2.500000 0.500000 -2.500000
v -2.300000 0.000000 -0.500000
v -2.300000 0.500000 -0.500000
v -2.500000 0.000000 -0.500000
v -2.500000 0.500000 -0.500000
v -2.300000 0.000000 -0.300000
v -2.300000 0.500000 -0.300000
v -2.500000 0.000000 -0.300000
v -2.500000 0.500000 -0.300000
v -0.200000 0.000000 -0.500000
v -0.200000 0.500000 -0.500000
v -0.200000 0.000000 -0.300000
v -0.200000 0.500000 -0.300000
v -0.000000 0.000000 -0.500000
v -0.000000 0.500000 -0.500000
v -0.000000 0.000000 -0.300000
v -0.000000 0.500000 -0.300000
v -0.200000 0.000000 2.300000
v -0.200000 0.500000 2.300000
v -0.000000 0.000000 2.300000
v -0.000000 0.500000 2.300000
v -0.200000 0.000000 2.500000
v -0.200000 0.500000 2.500000
v -0.000000 0.000000 2.500000
v -0.000000 0.500000 2.500000
v 2.300000 0.500000 2.300000
v 2.300000 0.000000 2.500000
v 2.300000 0.500000 2.500000
v 2.500000 0.000000 2.500000
v 2.500000 0.500000 2.500000
vn -1.0000 -0.0000 -0.0000
vn -0.0000 -0.0000 -1.0000
vn 1.0000 -0.0000 -0.0000
vn -0.0000 -0.0000 1.0000
vn -0.0000 -1.0000 -0.0000
vn 0.9960 0.0896 -0.0000
vn -0.9960 0.0896 -0.0000
vn -0.5334 -0.8459 -0.0000
vn 0.5334 -0.8459 -0.0000
vn 0.5397 0.8419 -0.0000
vn -0.5397 0.8419 -0.0000
vn -0.1588 0.3864 0.9085
vn 0.1588 0.3864 0.9085
vn -0.1588 0.3864 -0.9085
vn 0.1588 0.3864 -0.9085
vn -0.0000 1.0000 -0.0000
vn -0.4472 0.8944 -0.0000
vn -0.4472 -0.8944 -0.0000
vn 0.4472 0.8944 -0.0000
vn -0.0000 -0.2425 0.9701
vn -0.0000 -0.2425 -0.9701
vt 0.968750 0.875000
vt 0.968750 1.000000
vt 0.937500 0.968750
vt 1.000000 0.875000
vt 1.000000 1.000000
vt 0.968750 0.906250
vt 0.937500 0.937500
vt 1.000000 0.906250
vt 0.968750 0.968750
vt 1.000000 0.968750
vt 0.968750 0.937500
vt 1.000000 0.937500
vt 0.431993 0.505942
vt 0.125009 0.749987
vt 0.142382 0.868996
vt 0.431993 0.739962
vt 0.125009 0.500082
vt 0.011340 0.906799
vt 0.471201 0.739962
vt 0.125009 0.749987
vt 0.011340 0.831192
vt 0.471201 0.505942
vt 0.125009 0.500082
vt 0.142382 0.944603
vt 0.450382 0.732649
vt 0.374991 1.000187
vt 0.023184 0.890946
vt 0.450382 0.513255
vt 0.374991 0.750005
vt 0.130538 0.853143
vt 0.489590 0.513255
vt 0.374991 1.000187
vt 0.130538 0.928750
vt 0.489590 0.732649
vt 0.374991 0.750005
vt 0.023184 0.815339
vt 0.000010 0.749955
vt 0.250037 0.750032
vt 0.226744 0.984868
vt 0.021856 0.870127
vt 0.131866 0.832323
vt 0.000010 0.500177
vt 0.250037 0.500051
vt 0.011340 0.984868
vt 0.131866 0.907930
vt 0.021856 0.945734
vt 0.218766 0.966553
vt 0.250027 0.750025
vt 0.499983 0.750017
vt 0.011340 0.853143
vt 0.142382 0.815339
vt 0.019317 0.966553
vt 0.250027 0.999819
vt 0.499983 0.999968
vt 0.142382 0.890946
vt 0.011339 0.928750
vt 0.285730 0.196700
vt 0.195939 0.290622
vt 0.224218 0.290622
vt 0.195939 0.352135
vt 0.224218 0.352135
vt 0.233644 0.347180
vt 0.233644 0.290622
vt 0.356186 0.214970
vt 0.351715 0.196118
vt 0.295147 0.196700
vt 0.195939 0.224397
vt 0.214792 0.290622
vt 0.214792 0.352135
vt 0.134426 0.224397
vt 0.361131 0.196118
vt 0.285730 0.206126
vt 0.205365 0.290622
vt 0.261923 0.214970
vt 0.205365 0.352135
vt 0.243070 0.290622
vt 0.261923 0.276483
vt 0.295147 0.206126
vt 0.195939 0.214970
vt 0.271349 0.214970
vt 0.134426 0.214970
vt 0.271349 0.276483
vt 0.271349 0.290622
vt 0.125000 0.120707
vt 0.186513 0.120707
vt 0.361131 0.196118
vt 0.280766 0.290622
vt 0.276304 0.120707
vt 0.125000 0.130134
vt 0.186513 0.130134
vt 0.233644 0.290622
vt 0.233644 0.347122
vt 0.370548 0.196118
vt 0.214792 0.120707
vt 0.125000 0.111281
vt 0.271349 0.300049
vt 0.195939 0.214970
vt 0.195939 0.276483
vt 0.186513 0.111281
vt 0.280766 0.300049
vt 0.276304 0.111281
vt 0.205365 0.214970
vt 0.214792 0.111281
vt 0.243070 0.347122
vt 0.205365 0.276483
vt 0.134426 0.318660
vt 0.271349 0.276483
vt 0.195939 0.318660
vt 0.304564 0.196700
vt 0.271349 0.214970
vt 0.205365 0.352135
vt 0.280776 0.276483
vt 0.243070 0.290622
vt 0.205365 0.290622
vt 0.295147 0.196700
vt 0.280776 0.214970
vt 0.214792 0.290622
vt 0.295147 0.206126
vt 0.342288 0.111281
vt 0.195939 0.214970
vt 0.276304 0.186933
vt 0.346760 0.285909
vt 0.195939 0.309233
vt 0.304564 0.206126
vt 0.351715 0.111281
vt 0.351715 0.172794
vt 0.134426 0.309233
vt 0.361131 0.111281
vt 0.295157 0.186933
vt 0.125000 0.214970
vt 0.346760 0.214970
vt 0.186513 0.214970
vt 0.346760 0.276483
vt 0.304573 0.186933
vt 0.276304 0.214970
vt 0.337333 0.214970
vt 0.337333 0.276483
vt 0.214792 0.214970
vt 0.243070 0.347122
vt 0.295157 0.196359
vt 0.125000 0.205544
vt 0.276304 0.111281
vt 0.200652 0.214970
vt 0.276304 0.196700
vt 0.337333 0.290622
vt 0.304573 0.196359
vt 0.276304 0.205544
vt 0.285730 0.111281
vt 0.252497 0.347122
vt 0.285730 0.172794
vt 0.370548 0.111281
vt 0.214792 0.205544
vt 0.224218 0.347180
vt 0.261923 0.290622
vt 0.346760 0.214970
vt 0.356186 0.299807
vt 0.309287 0.186933
vt 0.280766 0.300049
vt 0.125000 0.224397
vt 0.365603 0.299807
vt 0.309287 0.186933
vt 0.280766 0.290622
vt 0.252497 0.290622
vt 0.261923 0.285909
vt 0.309287 0.196359
vt 0.271349 0.285909
vt 0.125000 0.214970
vt 0.309287 0.196359
vt 0.375000 0.299807
vt 0.195939 0.120707
vt 0.224218 0.290622
vt 0.365603 0.299807
vt 0.261923 0.347006
vt 0.205365 0.120707
vt 0.195939 0.130134
vt 0.195939 0.111281
vt 0.195939 0.285909
vt 0.252497 0.347006
vt 0.205365 0.111281
vt 0.205365 0.285909
vt 0.271349 0.285909
vt 0.125000 0.318660
vt 0.261923 0.347006
vt 0.280776 0.285909
vt 0.290192 0.290622
vt 0.276304 0.196700
vt 0.195939 0.120707
vt 0.365603 0.214970
vt 0.351715 0.182220
vt 0.125000 0.309233
vt 0.195939 0.214970
vt 0.346760 0.285909
vt 0.205365 0.214970
vt 0.261923 0.290622
vt 0.337333 0.285909
vt 0.195939 0.205544
vt 0.375000 0.214970
vt 0.276304 0.182220
vt 0.365603 0.214970
vt 0.271349 0.290622
vt 0.205365 0.205544
vt 0.285730 0.182220
vt 0.276304 0.206467
vt 0.200652 0.120707
vt 0.200652 0.130134
vt 0.285730 0.186933
vt 0.309287 0.186933
vt 0.280766 0.290622
vt 0.285730 0.196562
vt 0.304573 0.186933
vt 0.285479 0.300049
vt 0.271349 0.347006
vt 0.346760 0.299807
vt 0.356186 0.214970
vt 0.342288 0.182220
vt 0.290192 0.300049
vt 0.276304 0.172794
vt 0.186513 0.205544
vt 0.361131 0.111281
vt 0.261923 0.290622
vt 0.295157 0.196562
vt 0.304573 0.196359
vt 0.271349 0.285909
vt 0.295157 0.186933
vt 0.309287 0.196359
vt 0.214792 0.352135
vt 0.252497 0.290622
vt 0.342288 0.172794
vt 0.356186 0.299807
vt 0.351715 0.111281
vt 0.285730 0.206467
vt 0.200652 0.111281
vt 0.205365 0.290622
vt 0.195939 0.111281
vt 0.285730 0.196700
vt 0.195939 0.285909
vt 0.313591 0.206126
vt 0.271349 0.285909
vt 0.125000 0.318660
vt 0.304564 0.206126
vt 0.280776 0.290622
vt 0.285479 0.290622
vt 0.313591 0.196700
vt 0.351715 0.182220
vt 0.125000 0.309233
vt 0.200652 0.205544
vt 0.285730 0.196700
vt 0.285730 0.186933
vt 0.195939 0.205544
vt 0.285730 0.186933
vt 0.276304 0.182220
vt 0.304564 0.196700
vt 0.342288 0.186933
vt 0.285479 0.300049
vt 1.000000 1.000000
vt 1.000000 0.906250
vt 1.000000 0.968750
vt 1.000000 0.937500
vt 1.000000 1.000000
vt 1.000000 0.937500
vt 0.687500 0.000000
vt 0.687500 0.125000
vt 0.562500 0.250000
vt 0.562500 0.375000
vt 0.562500 0.250000
vt 0.687500 0.125000
vt 0.812500 0.125000
vt 0.937500 0.250000
vt 0.687500 0.375000
vt 0.812500 0.375000
vt 0.687500 0.250000
vt 0.812500 0.250000
vt 0.562500 0.250000
vt 0.687500 0.125000
vt 0.812500 0.125000
vt 0.937500 0.250000
vt 0.687500 0.250000
vt 0.812500 0.250000
vt 0.562500 0.250000
vt 0.687500 0.125000
vt 0.812500 0.125000
vt 0.937500 0.250000
vt 0.562500 0.250000
vt 0.687500 0.125000
vt 0.812500 0.125000
vt 0.937500 0.250000
vt 0.562500 0.250000
vt 0.687500 0.125000
vt 0.937500 0.250000
vt 0.812500 0.125000
vt 0.562500 0.250000
vt 0.687500 0.125000
vt 0.812500 0.125000
vt 0.937500 0.250000
vt 0.562500 0.250000
vt 0.687500 0.125000
vt 0.812500 0.125000
vt 0.937500 0.250000
vt 0.687500 0.125000
vt 0.562500 0.250000
vt 0.812500 0.125000
vt 0.937500 0.250000
vt 0.687500 0.125000
vt 0.562500 0.250000
vt 0.812500 0.125000
vt 0.937500 0.250000
vt 0.687500 0.125000
vt 0.562500 0.250000
vt 0.812500 0.125000
vt 0.937500 0.250000
vt 0.562500 0.250000
vt 0.687500 0.125000
vt 0.937500 0.250000
vt 0.812500 0.125000
vt 0.687500 0.125000
vt 0.562500 0.250000
vt 0.937500 0.250000
vt 0.812500 0.125000
vt 0.562500 0.250000
vt 0.687500 0.125000
vt 0.937500 0.250000
vt 0.812500 0.125000
vt 0.937500 0.250000
vt 0.562500 0.250000
vt 0.687500 0.125000
vt 0.937500 0.250000
vt 0.812500 0.125000
vt 0.937500 0.250000
vt 0.562500 0.250000
vt 0.687500 0.125000
vt 0.812500 0.125000
vt 0.937500 0.250000
vt 0.687500 0.125000
vt 0.562500 0.250000
vt 0.812500 0.125000
vt 0.937500 0.250000
vt 0.562500 0.250000
vt 0.687500 0.125000
vt 0.812500 0.125000
vt 0.937500 0.250000
vt 0.687500 0.125000
vt 0.562500 0.250000
vt 0.812500 0.125000
vt 0.937500 0.250000
vt 0.812500 0.000000
vt 0.937500 0.375000
vt 0.812500 0.125000
vt 0.937500 0.250000
vt 0.687500 0.125000
vt 0.562500 0.250000
vt 0.687500 0.500000
vt 0.562500 0.375000
vt 0.937500 0.375000
vt 0.812500 0.125000
vt 0.937500 0.250000
vt 0.812500 0.500000
vt 0.687500 0.375000
vt 0.812500 0.375000
s 0
f 1/1/1 2/4/1 4/8/1 3/6/1
f 3/6/2 4/8/2 8/12/2 7/11/2
f 7/11/3 8/12/3 6/10/3 5/9/3
f 5/9/4 6/10/4 2/5/4 1/2/4
f 3/7/5 7/11/5 5/9/5 1/3/5
f 11/19/6 12/22/6 15/31/6 16/34/6
f 10/16/7 9/13/7 14/28/7 13/25/7
f 12/23/8 11/20/8 17/37/8 18/42/8
f 9/14/9 10/17/9 18/43/9 17/38/9
f 17/39/3 18/44/3 20/52/3 19/47/3
f 19/48/10 16/35/10 15/32/10 20/53/10
f 20/54/11 13/26/11 14/29/11 19/49/11
f 14/30/12 9/15/12 17/40/12 19/50/12
f 19/51/13 17/41/13 11/21/13 16/36/13
f 20/55/14 18/45/14 10/18/14 13/27/14
f 15/33/15 12/24/15 18/46/15 20/56/15
f 21/57/5 23/66/5 27/78/5 25/72/5
f 22/60/1 21/58/1 25/73/1 26/75/1
f 23/67/3 24/70/3 28/81/3 27/79/3
f 30/85/1 57/170/1 67/196/1 73/218/1
f 24/69/2 23/68/2 21/59/2 22/61/2
f 45/129/5 47/134/5 51/146/5 49/140/5
f 28/82/4 56/166/4 55/164/4 26/77/4
f 47/135/3 48/138/3 52/152/3 51/147/3
f 73/217/4 52/150/4 68/202/4 67/198/4
f 46/132/1 45/130/1 49/141/1 73/218/1
f 30/85/1 29/84/1 33/95/1 34/99/1
f 29/83/5 31/87/5 35/100/5 33/96/5
f 31/88/3 32/94/3 36/103/3 35/101/3
f 38/108/3 37/106/3 44/127/3 43/123/3
f 39/111/1 40/114/1 41/117/1 76/226/1
f 76/228/4 44/126/4 64/189/4 72/215/4
f 40/115/5 38/109/5 43/124/5 41/118/5
f 46/133/2 48/137/2 47/136/2 45/131/2
f 52/150/4 73/217/4 49/142/4 51/148/4
f 39/112/2 37/107/2 38/110/2 40/116/2
f 44/126/4 76/228/4 41/119/4 43/125/4
f 30/85/2 32/90/2 31/89/2 29/84/2
f 36/105/4 34/98/4 33/97/4 35/102/4
f 68/201/3 66/193/3 50/143/3 82/246/3
f 56/166/4 75/223/4 74/220/4 55/164/4
f 57/170/1 59/176/1 78/234/1 63/187/1
f 65/191/1 67/196/1 83/249/1 42/120/1
f 46/132/1 73/218/1 67/196/1 65/191/1
f 34/98/4 36/105/4 60/180/4 59/177/4
f 62/184/2 39/112/2 48/137/2 66/195/2
f 48/137/2 46/133/2 65/192/2 66/195/2
f 52/152/3 48/138/3 66/193/3 68/201/3
f 22/62/4 53/153/4 58/171/4 32/91/4
f 30/85/1 34/99/1 59/176/1 57/170/1
f 44/127/3 37/106/3 61/182/3 64/190/3
f 37/107/2 39/112/2 62/184/2 61/181/2
f 24/70/3 54/159/3 56/167/3 28/81/3
f 36/103/3 32/94/3 58/174/3 60/179/3
f 57/169/16 58/172/16 68/199/16 67/197/16
f 69/203/17 63/186/17 78/235/17 77/231/17
f 71/209/18 70/206/18 75/224/18 74/221/18
f 26/76/5 36/104/5 32/92/5 22/63/5
f 39/113/5 76/227/5 52/149/5 48/139/5
f 53/154/16 58/173/16 60/178/16 55/163/16
f 76/228/4 72/215/4 68/202/4 52/150/4
f 72/212/16 62/183/16 66/194/16 68/200/16
f 55/164/4 60/180/4 36/105/4 26/77/4
f 32/93/5 30/86/5 73/219/5 52/151/5
f 24/70/3 44/127/3 64/190/3 54/159/3
f 53/155/3 22/64/3 76/229/3 72/213/3
f 22/65/5 76/230/5 44/128/5 24/71/5
f 54/160/5 53/156/5 72/214/5 64/188/5
f 58/174/3 32/94/3 52/152/3 68/201/3
f 50/144/17 42/121/17 83/250/17 82/247/17
f 79/237/19 80/240/19 84/252/19 81/243/19
f 60/179/3 58/174/3 69/204/3 77/232/3
f 55/165/1 74/222/1 71/210/1 53/157/1
f 54/161/1 56/168/1 75/225/1 70/207/1
f 61/181/2 62/184/2 80/241/2 79/238/2
f 72/215/4 64/189/4 81/244/4 84/253/4
f 53/158/4 54/162/4 70/208/4 71/211/4
f 62/185/1 72/216/1 84/254/1 80/242/1
f 58/175/2 57/170/2 63/187/2 69/205/2
f 64/190/3 61/182/3 79/239/3 81/245/3
f 66/195/2 65/192/2 42/122/2 50/145/2
f 67/198/4 68/202/4 82/248/4 83/251/4
f 59/177/4 60/180/4 77/233/4 78/236/4
f 2/5/4 6/10/4 87/257/4 85/255/4
f 8/12/2 4/8/2 86/256/2 88/258/2
f 85/255/20 87/257/20 89/259/20
f 88/258/21 86/256/21 90/260/21
f 91/261/1 134/345/1 93/267/1 92/266/1
f 93/268/16 97/272/16 101/278/16 99/276/16
f 96/271/3 97/272/3 95/270/3 94/269/3
f 95/270/16 134/346/16 136/353/16 138/358/16
f 92/265/5 96/271/5 94/269/5 91/264/5
f 97/272/16 93/268/16 134/346/16 95/270/16
f 98/274/2 99/275/2 101/278/2 100/277/2
f 98/273/5 92/265/5 102/279/5 104/283/5
f 97/272/3 96/271/3 100/277/3 101/278/3
f 96/271/5 92/265/5 98/273/5 100/277/5
f 106/287/5 102/279/5 110/295/5 112/300/5
f 92/266/4 93/267/4 103/281/4 102/280/4
f 99/275/2 98/274/2 104/284/2 105/285/2
f 93/268/16 99/276/16 105/286/16 103/282/16
f 106/288/1 107/290/1 109/293/1 108/292/1
f 104/283/5 102/279/5 106/287/5 108/291/5
f 105/285/2 104/284/2 108/292/2 109/293/2
f 103/282/16 105/286/16 109/294/16 107/289/16
f 113/301/1 112/299/1 116/307/1 117/309/1
f 102/280/3 103/281/3 111/297/3 110/296/3
f 103/282/16 107/289/16 113/302/16 111/298/16
f 107/290/1 106/288/1 112/299/1 113/301/1
f 114/303/4 115/305/4 117/309/4 116/307/4
f 111/298/16 113/302/16 117/310/16 115/306/16
f 115/305/4 114/303/4 120/315/4 121/318/4
f 112/300/5 110/295/5 114/304/5 116/308/5
f 120/316/5 118/311/5 122/319/5 124/324/5
f 114/304/5 110/295/5 118/311/5 120/316/5
f 110/296/2 111/297/2 119/314/2 118/312/2
f 111/298/16 115/306/16 121/317/16 119/313/16
f 125/328/16 121/317/16 127/332/16 129/336/16
f 119/313/16 121/317/16 125/328/16 123/323/16
f 118/312/2 119/314/2 123/322/2 122/320/2
f 126/329/5 128/334/5 132/342/5 130/337/5
f 121/318/1 120/315/1 126/330/1 127/331/1
f 120/316/5 124/324/5 128/334/5 126/329/5
f 124/325/3 125/327/3 129/335/3 128/333/3
f 131/339/4 130/338/4 132/341/4 133/343/4
f 127/331/1 126/330/1 130/338/1 131/339/1
f 129/336/16 127/332/16 131/340/16 133/344/16
f 133/343/4 132/341/4 135/349/4 136/354/4
f 91/262/3 134/347/3 136/354/3 135/349/3
f 128/333/2 129/335/2 134/347/2 91/262/2
f 132/342/5 128/334/5 91/263/5 135/350/5
f 129/336/16 133/344/16 136/355/16 134/348/16
f 137/357/4 138/358/4 136/356/4 135/351/4
f 94/269/3 95/270/3 138/358/3 137/357/3
f 91/264/5 94/269/5 137/357/5 135/352/5
f 123/323/3 125/328/3 124/326/3 122/321/3
f 28/82/4 26/77/4 25/74/4 27/80/4
