# Blender 3.4.1
# www.blender.org
o hinge
v -2.000000 1.000000 1.000000
v 1.000000 2.000000 1.000000
v -2.000000 1.000000 -1.000000
v 2.000000 1.000000 -1.000000
v -2.000000 -1.000000 1.000000
v -2.000000 -1.000000 -1.000000
v -1.000000 2.000000 -1.000000
v -1.000000 -2.000000 -1.000000
v -1.000000 -2.000000 1.000000
v 1.000000 2.000000 -1.000000
v -1.000000 2.000000 1.000000
v 2.000000 1.000000 1.000000
v 1.000000 -2.000000 1.000000
v 1.000000 1.000000 1.000000
v 2.000000 -1.500000 1.500000
v 2.000000 1.000000 1.500000
v 1.500000 0.500000 1.500000
v 1.000000 -2.000000 -1.000000
v 1.000000 1.000000 -1.000000
v 2.000000 -1.500000 -1.500000
v 2.000000 1.000000 -1.500000
v 1.500000 0.500000 -1.500000
v 2.000000 -1.500000 5.000000
v 2.000000 1.000000 5.000000
v 2.000000 1.000000 -5.000000
v 2.000000 -1.000000 1.500000
v 1.500000 -1.000000 1.500000
v 2.000000 -1.000000 -1.500000
v 1.500000 -1.000000 -1.500000
v 2.000000 -1.000000 5.000000
v 2.000000 -1.000000 -5.000000
v 2.000000 -1.500000 -5.000000
v 1.500000 0.500000 -5.000000
v 1.500000 -1.000000 -5.000000
v 1.500000 0.500000 5.000000
v 1.500000 -1.000000 5.000000
v 2.000000 -1.000000 5.500000
v 2.000000 0.500000 5.500000
v 12.000000 -1.000000 -5.000000
v 12.000000 -1.000000 5.000000
v 2.000000 -1.000000 -5.500000
v 2.000000 0.500000 -5.500000
v 12.000000 1.000000 -5.000000
v 12.000000 -1.500000 -5.000000
v 12.500000 -1.000000 -5.000000
v 12.500000 -1.000000 5.000000
v 12.500000 0.500000 -5.000000
v 12.500000 0.500000 5.000000
v 12.000000 -1.000000 5.500000
v 12.000000 0.500000 5.500000
v 12.000000 -1.000000 -5.500000
v 12.000000 0.500000 -5.500000
v 12.000000 -1.500000 5.000000
v 12.000000 1.000000 5.000000
vn 0.7071 0.7071 -0.0000
vn -0.7071 -0.7071 -0.0000
vn 0.4472 -0.8944 -0.0000
vn -0.7071 0.7071 -0.0000
vn -0.0000 1.0000 -0.0000
vn -1.0000 -0.0000 -0.0000
vn -0.0000 -1.0000 -0.0000
vn 1.0000 -0.0000 -0.0000
vn -0.0526 0.0175 0.9985
vn -0.0526 0.0175 -0.9985
vn -0.3015 -0.3015 0.9045
vn -0.2673 0.8018 0.5345
vn -0.7071 -0.0000 0.7071
vn -0.2673 0.8018 -0.5345
vn -0.3015 -0.3015 -0.9045
vn -0.7071 -0.0000 -0.7071
vn -0.0000 -0.0000 1.0000
vn -0.5774 -0.5774 -0.5774
vn -0.5774 0.5774 -0.5774
vn -0.0000 -0.7071 -0.7071
vn -0.5774 -0.5774 0.5774
vn -0.0000 -0.0000 -1.0000
vn -0.5774 0.5774 0.5774
vn 0.5774 0.5774 0.5774
vn -0.0000 0.7071 -0.7071
vn -0.0000 -0.7071 0.7071
vn -0.0000 0.7071 0.7071
vn 0.5774 -0.5774 0.5774
vn 0.5774 -0.5774 -0.5774
vn 0.7071 -0.0000 -0.7071
vn 0.7071 -0.0000 0.7071
vn 0.5774 0.5774 -0.5774
vn 0.7071 -0.7071 -0.0000
vt 0.562500 0.125000
vt 0.625000 0.625000
vt 0.562500 0.187500
vt 0.000000 0.000000
vt 0.562500 0.562500
vt 0.437500 0.125000
vt 0.437500 0.187500
vt 0.625000 0.187500
vt 0.375000 0.187500
vt 0.375000 0.125000
vt 0.625000 0.562500
vt 0.625000 0.125000
vt 0.562500 0.625000
vt 0.000000 0.000000
vt 0.375000 0.625000
vt 0.000000 0.000000
vt 0.000000 0.000000
vt 0.437500 0.625000
vt 0.000000 0.000000
vt 0.562500 0.625000
vt 0.000000 0.000000
vt 0.000000 0.000000
vt 0.375000 0.562500
vt 0.000000 0.000000
vt 0.000000 0.000000
vt 0.437500 0.562500
vt 0.000000 0.000000
vt 0.000000 0.000000
vt 0.562500 0.562500
vt 0.000000 0.000000
vt 0.437500 0.625000
vt 0.000000 0.000000
vt 0.562500 0.625000
vt 0.000000 0.000000
vt 0.562500 0.562500
vt 0.000000 0.000000
vt 0.500000 0.625000
vt 0.000000 0.000000
vt 0.000000 0.000000
vt 0.500000 0.562500
vt 0.000000 0.000000
vt 0.000000 0.000000
vt 0.500000 0.625000
vt 0.000000 0.000000
vt 0.500000 0.562500
vt 0.000000 0.000000
vt 0.437500 0.562500
vt 0.000000 0.000000
vt 0.000000 0.000000
vt 0.000000 0.000000
vt 0.000000 0.000000
vt 0.000000 0.000000
vt 0.000000 0.000000
vt 0.000000 0.000000
vt 0.000000 0.000000
vt 0.500000 0.562500
vt 0.500000 0.625000
vt 0.000000 0.000000
vt 0.500000 0.562500
vt 0.000000 0.000000
vt 0.000000 0.000000
vt 0.000000 0.000000
vt 0.562500 0.562500
vt 0.000000 0.000000
vt 0.437500 0.562500
vt 0.500000 0.562500
vt 0.500000 0.625000
vt 0.500000 0.562500
vt 0.000000 0.000000
vt 0.562500 0.562500
vt 0.000000 0.000000
vt 0.562500 0.625000
vt 0.562500 0.562500
vt 0.000000 0.000000
vt 0.500000 0.625000
vt 0.000000 0.000000
vt 0.562500 0.625000
vt 0.000000 0.000000
vt 0.500000 0.562500
vt 0.562500 0.562500
vt 0.000000 0.000000
vt 0.437500 0.625000
vt 0.000000 0.000000
vt 0.437500 0.562500
vt 0.000000 0.000000
vt 0.562500 0.625000
vt 0.562500 0.562500
s 0
f 4/5/1 10/11/1 2/2/1 12/13/1
f 9/10/2 5/6/2 6/7/2 8/9/2
f 18/23/3 20/26/3 15/18/3 13/15/3
f 1/1/4 11/12/4 7/8/4 3/3/4
f 10/11/5 7/8/5 11/12/5 2/2/5
f 5/6/6 1/1/6 3/3/6 6/7/6
f 13/15/7 9/10/7 8/9/7 18/23/7
f 12/13/8 15/18/8 20/26/8 4/5/8
f 2/2/9 11/12/9 1/1/9 5/6/9 9/10/9 13/15/9 15/18/9 12/13/9
f 3/3/10 7/8/10 10/11/10 4/5/10 20/26/10 18/23/10 8/9/10 6/7/10
f 15/19/11 27/39/11 13/16/11
f 27/39/2 15/19/2 23/32/2 36/52/2
f 12/13/8 16/20/8 26/37/8 15/18/8
f 14/17/12 17/22/12 16/21/12 12/14/12
f 13/16/13 27/39/13 17/22/13 14/17/13
f 4/4/14 21/28/14 22/30/14 19/25/14
f 22/30/4 21/28/4 25/36/4 33/49/4
f 20/26/8 28/40/8 21/29/8 4/5/8
f 18/24/15 29/42/15 20/27/15
f 19/25/16 22/30/16 29/42/16 18/24/16
f 26/37/8 16/20/8 24/33/8 30/43/8
f 16/21/4 17/22/4 35/51/4 24/34/4
f 34/50/16 33/49/16 42/61/16 41/60/16
f 28/40/8 20/26/8 32/47/8 31/45/8
f 20/27/2 29/42/2 34/50/2 32/48/2
f 29/42/6 22/30/6 33/49/6 34/50/6
f 21/29/8 28/40/8 31/45/8 25/35/8
f 17/22/6 27/39/6 36/52/6 35/51/6
f 15/18/8 26/37/8 30/43/8 23/31/8
f 31/45/17 32/47/17 44/65/17 39/56/17
f 32/48/18 34/50/18 41/60/18
f 25/35/17 31/45/17 39/56/17 43/63/17
f 33/49/19 25/36/19 42/61/19
f 32/48/20 41/60/20 51/78/20 44/64/20
f 36/52/21 23/32/21 37/53/21
f 23/31/22 30/43/22 40/57/22 53/82/22
f 24/34/23 35/51/23 38/54/23
f 35/51/13 36/52/13 37/53/13 38/54/13
f 53/82/22 40/57/22 46/67/22
f 54/85/24 50/76/24 48/71/24
f 42/61/25 25/36/25 43/62/25 52/81/25
f 41/60/22 42/61/22 52/81/22 51/78/22
f 38/54/17 37/53/17 49/74/17 50/76/17
f 37/53/26 23/32/26 53/83/26 49/74/26
f 30/43/22 24/33/22 54/86/22 40/57/22
f 24/34/27 38/54/27 50/76/27 54/85/27
f 53/82/28 46/67/28 49/75/28
f 45/66/29 44/65/29 51/79/29
f 47/70/30 45/66/30 51/79/30 52/80/30
f 46/67/31 48/72/31 50/77/31 49/75/31
f 39/56/6 44/65/6 53/84/6 40/59/6
f 47/69/1 43/62/1 54/85/1 48/71/1
f 52/81/32 43/62/32 47/69/32
f 40/57/22 54/86/22 48/72/22 46/67/22
f 28/41/5 26/38/5 30/44/5 40/58/5 39/55/5 31/46/5
f 15/19/7 20/27/7 32/48/7 44/64/7 53/83/7 23/32/7
f 45/66/8 47/70/8 48/73/8 46/68/8
f 43/63/6 39/56/6 40/59/6 54/87/6
f 44/65/33 45/66/33 46/68/33 53/84/33
