# Blender 3.4.1
# www.blender.org
o mine
v -0.141421 0.000000 -1.979899
v 0.000000 1.177721 -1.414214
v 2.192031 0.000000 0.353553
v 1.555635 1.177721 0.141421
v -1.979899 0.000000 -0.141421
v -1.414214 1.177721 0.000000
v 0.353553 0.000000 2.192031
v 0.141421 1.177721 1.555635
v 0.000000 1.537721 -0.848528
v 0.848528 1.537721 0.000000
v -0.848528 1.537721 0.000000
v 0.000000 1.537721 0.848528
v 0.000000 0.577721 -1.697056
v 1.979899 0.577721 0.282843
v 0.282843 0.577721 1.979899
v -1.697056 0.577721 0.000000
v 1.626346 0.000000 1.626346
v 1.060660 1.177721 1.060660
v -0.707107 1.417721 -0.707107
v 0.636396 1.537721 0.636396
v -0.494975 1.537721 -0.494975
v 1.414213 0.577721 1.414213
v 1.592404 0.000000 -1.238851
v 0.919239 1.177721 -0.777817
v -1.238851 0.000000 1.592405
v -0.777817 1.177721 0.919239
v 0.509117 1.537721 -0.509117
v -0.509117 1.537721 0.509117
v -1.071974 0.577721 1.354817
v 1.354817 0.577721 -1.071974
v 0.000000 1.657721 0.000000
v 0.176777 0.000000 0.176777
v 0.000000 0.877721 -1.555635
v -1.838478 0.277721 -0.070711
v -1.658165 0.000000 -0.463155
v -0.353553 1.297721 -1.060660
v -0.070711 0.277721 -1.838478
v -1.555635 0.877721 0.000000
v -0.405879 0.697721 -1.432598
v -0.463155 0.000000 -1.658165
v -1.060660 1.297721 -0.353553
v -1.432598 0.697721 -0.405879
v -0.919239 1.117721 -0.919239
v -1.230366 0.997721 -0.608112
v -1.564474 0.397721 -0.415425
v -0.415425 0.397721 -1.564474
v -0.608112 0.997721 -1.230366
v -1.255822 0.000000 -0.299813
v -0.283105 0.715721 -1.001809
v -0.299813 0.000000 -1.255822
v -1.001809 0.715721 -0.283105
v -0.642457 1.009721 -0.642457
v -0.860246 0.925721 -0.424668
v -1.094122 0.505721 -0.289788
v -0.289788 0.505721 -1.094122
v -0.424668 0.925721 -0.860246
v -0.466691 0.523721 -0.466691
v -0.353553 0.010000 -1.060660
v -1.060660 0.010000 -0.353553
v -1.414214 0.010000 -2.121320
v -2.121320 0.010000 -1.414214
vn 0.7203 0.5670 -0.3996
vn 0.3649 0.6077 0.7054
vn -0.7510 0.5123 0.4166
vn -0.3865 0.5485 -0.7415
vn 0.3476 0.7876 -0.5088
vn -0.0020 0.9901 -0.1400
vn -0.4624 0.8543 -0.2375
vn 0.4506 0.8689 0.2048
vn -0.3308 0.8099 0.4843
vn -0.4362 0.4207 -0.7955
vn -0.8524 0.3635 0.3759
vn 0.3902 0.4000 0.8293
vn 0.8599 0.3644 -0.3573
vn 0.8293 0.4000 0.3902
vn 0.2048 0.8689 0.4506
vn -0.2375 0.8543 -0.4624
vn -0.1400 0.9901 -0.0020
vn -0.2727 0.1061 -0.9562
vn -0.6225 0.6873 -0.3743
vn 0.7054 0.6077 0.3649
vn -0.0000 -1.0000 -0.0000
vn -0.0156 0.9900 0.1400
vn 0.3759 0.3635 -0.8524
vn -0.3573 0.3644 0.8599
vn -0.5088 0.7876 0.3476
vn 0.1400 0.9900 -0.0156
vn 0.4843 0.8099 -0.3308
vn -0.3996 0.5670 0.7203
vn 0.4166 0.5123 -0.7510
vn -0.8444 0.3457 -0.4093
vn -0.7415 0.5485 -0.3865
vn -0.7276 0.3561 -0.5863
vn -0.7955 0.4207 -0.4362
vn -0.5863 0.3561 -0.7276
vn -0.4093 0.3457 -0.8444
vn -0.3743 0.6873 -0.6225
vn -0.7258 -0.6469 0.2339
vn -0.9478 -0.0292 0.3175
vn 0.2765 -0.0911 -0.9567
vn 0.2339 -0.6469 -0.7258
vn -0.3617 -0.9323 -0.0021
vn -0.0021 -0.9323 -0.3617
vn -0.9567 -0.0911 0.2765
vn 0.3175 -0.0292 -0.9478
vn -0.7119 -0.4519 -0.5376
vn -0.2723 0.1499 -0.9505
vn -0.5376 -0.4519 -0.7119
vn -0.8610 -0.3070 -0.4055
vn -0.9562 0.1061 -0.2727
vn -0.4055 -0.3070 -0.8610
vn -0.9505 0.1499 -0.2723
vn -0.6260 0.4651 -0.6260
vn -0.0016 -1.0000 -0.0016
vn -0.0000 1.0000 -0.0000
vt 0.321281 0.865914
vt 0.493214 0.809134
vt 0.279365 0.580776
vt 0.062970 0.913641
vt 0.468104 0.584096
vt 0.270431 0.889396
vt 0.341674 0.603506
vt 0.426474 0.500000
vt 0.193223 0.915900
vt 0.186951 0.811153
vt 0.288614 0.634746
vt 0.419737 0.930521
vt 0.001451 0.901545
vt 0.450095 0.724095
vt 0.363197 0.724095
vt 0.081616 0.995375
vt 0.097857 0.507965
vt 0.341674 0.620547
vt 0.270431 0.889396
vt 0.363196 0.865914
vt 0.211766 0.960798
vt 0.236288 0.811153
vt 0.406179 0.852023
vt 0.005443 0.738342
vt 0.053285 0.815901
vt 0.321281 0.950953
vt 0.440031 0.627928
vt 0.288614 0.589348
vt 0.426474 0.559877
vt 0.195976 0.925418
vt 0.236288 0.923233
vt 0.363197 0.914729
vt 0.045626 0.929254
vt 0.406179 0.763115
vt 0.236288 0.855559
vt 0.105083 0.921632
vt 0.321566 0.890133
vt 0.277365 0.911932
vt 0.383492 0.643720
vt 0.429183 0.874374
vt 0.417879 0.967706
vt 0.280672 0.847788
vt 0.383492 0.612027
vt 0.467082 0.627928
vt 0.333219 0.612047
vt 0.386826 0.510485
vt 0.152105 0.914319
vt 0.051676 0.906292
vt 0.103510 0.811153
vt 0.195169 0.812734
vt 0.366531 0.841538
vt 0.333219 0.612047
vt 0.383492 0.612027
vt 0.322588 0.742220
vt 0.472204 0.981743
vt 0.489710 0.505169
vt 0.236288 0.915900
vt 0.193223 0.811153
vt 0.082195 0.809653
vt 0.051676 0.894409
vt 0.419737 0.852023
vt 0.440031 0.706426
vt -0.000158 0.823037
vt 0.270431 0.812747
vt 0.270431 0.966045
vt 0.435887 0.847486
vt 0.456181 0.584096
vt 0.371010 0.864931
vt 0.391305 0.693518
vt 0.474352 0.852023
vt 0.000764 0.906292
vt 0.203259 0.970485
vt 0.246890 0.811153
vt 0.246889 0.967639
vt 0.097066 0.966574
vt 0.103510 0.906292
vt 0.193223 0.907837
vt 0.150159 0.819216
vt 0.051676 0.811153
vt 0.426474 0.627928
vt 0.321281 0.724095
vt 0.279365 0.722605
vt 0.279365 0.718086
vt 0.468104 0.500000
vt 0.450095 0.808191
vt 0.333219 0.520109
vt 0.363197 0.865914
vt 0.406179 0.724095
vt -0.000158 0.610476
vt 0.333219 0.703944
vt 0.321281 0.866856
vt 0.363196 0.950010
vt 0.279365 0.506008
vt 0.427151 0.513858
vt 0.151049 0.915900
vt 0.054462 0.974354
vt 0.406871 0.809134
vt 0.278056 0.865914
vt 0.150159 0.912848
vt 0.419737 0.919350
vt 0.322243 0.936152
vt 0.383492 0.724054
vt 0.321281 0.854432
vt 0.363197 0.729426
vt 0.333219 0.500000
vt 0.333219 0.724095
vt 0.383492 0.622597
vt 0.279365 0.735577
vt 0.383492 0.500000
vt 0.150159 0.970485
vt 0.150159 0.967440
vt 0.474352 0.920091
vt -0.000158 0.974354
vt 0.139604 0.666540
vt 0.082844 0.906292
vt 0.362583 0.607766
vt 0.447691 0.637386
vt 0.342892 0.733157
vt 0.059881 0.991910
vt 0.468104 0.500000
vt 0.081616 0.961307
vt 0.452814 0.920091
vt 0.129621 0.520707
vt 0.054462 0.950800
vt 0.270431 0.927721
vt 0.456181 0.622449
vt 0.396274 0.972875
vt 0.300977 0.856851
vt 0.471479 0.812599
vt 0.362583 0.616287
vt 0.452814 0.972285
vt 0.231640 0.968146
vt 0.417879 0.930521
vt 0.467082 0.665117
vt 0.456181 0.619594
vt 0.467082 0.687310
vt 0.493214 0.843202
vt 0.396274 0.974920
vt 0.247601 0.568034
vt 0.270431 0.851071
vt 0.435887 0.809134
vt 0.203259 0.923638
vt 0.472204 0.944554
vt 0.489710 0.542355
vt 0.467082 0.661261
vt 0.277365 0.950953
vt 0.406747 0.843801
vt 0.427042 0.587781
vt 0.466060 0.809134
vt 0.351740 0.983950
vt 0.406179 0.809868
vt 0.457487 0.920091
vt 0.231640 0.915900
vt 0.305642 0.955053
vt 0.351740 0.950010
vt 0.054462 0.958538
vt 0.470240 0.533876
vt 0.483901 0.674285
vt 0.452814 0.947503
vt 0.398409 0.939000
vt 0.466060 0.845971
vt 0.396274 0.947507
vt 0.483901 0.674285
vt 0.082844 0.958538
vt 0.452364 0.689581
vt 0.426474 0.621714
vt 0.484458 0.615494
vt 0.466060 0.843074
vt 0.949186 0.131459
vt 0.421551 0.929328
vt 0.886554 0.174512
vt 0.130217 0.553364
vt 0.464665 0.586966
vt 0.472127 0.720643
vt 0.954920 0.162346
vt 0.873091 0.174570
vt 0.365011 0.965683
vt 0.951198 0.136761
vt 0.886554 0.154172
vt 0.224602 0.591226
vt 0.472127 0.627928
vt 0.285848 0.983580
vt 0.917651 0.190572
vt 0.954726 0.145605
vt 0.435887 0.810634
vt 0.321566 0.982450
vt 0.954895 0.107433
vt 0.950963 0.182980
vt 0.305642 0.986450
vt 0.321566 0.958692
vt 0.955715 0.182980
vt 0.951198 0.143719
vt 0.944529 0.126161
vt 0.483901 0.637045
vt 0.419737 0.964490
vt 0.920295 0.191942
vt 0.363197 0.930521
vt 0.483901 0.711525
vt 0.946542 0.142059
vt 0.875736 0.173200
vt 0.484458 0.584096
vt 0.435887 0.834392
vt 0.950143 0.107433
vt 0.951393 0.164233
vt 0.949186 0.117528
vt 0.953545 0.100413
vt 0.920295 0.182132
vt 0.952314 0.175960
vt 0.954920 0.171191
vt 0.951198 0.150692
vt 0.954726 0.136761
vt 0.875736 0.183010
vt 0.877224 0.164342
vt 0.885746 0.159257
vt 0.198205 0.588742
vt 0.999995 0.999968
vt 0.885746 0.169427
vt 0.151013 0.569811
vt 0.500032 0.999986
vt 1.000021 0.250018
vt 0.499988 0.250009
s 0
f 30/106/1 24/83/1 4/11/1 14/45/1
f 22/76/2 18/60/2 8/25/2 15/49/2
f 29/102/3 26/90/3 6/18/3 38/130/3 16/53/3
f 47/164/4 36/124/4 2/4/4 33/115/4
f 24/84/5 2/5/5 9/29/5 27/94/5
f 31/110/6 27/95/6 9/30/6 21/72/6
f 19/64/7 41/140/7 6/19/7 11/35/7 21/73/7
f 18/61/8 4/12/8 10/32/8 20/68/8
f 26/91/9 8/26/9 12/38/9 28/98/9
f 46/160/10 39/133/10 13/41/10 37/127/10
f 25/87/11 29/103/11 16/54/11 34/118/11 5/15/11
f 17/57/12 22/77/12 15/50/12 7/22/12
f 23/80/13 30/107/13 14/46/13 3/8/13
f 3/9/14 14/47/14 22/78/14 17/58/14
f 8/27/15 18/62/15 20/69/15 12/39/15
f 2/6/16 36/125/16 19/65/16 21/74/16 9/31/16
f 28/99/17 31/111/17 21/75/17 11/36/17
f 48/169/18 54/193/18 57/205/18
f 44/151/19 41/141/19 19/66/19 43/147/19
f 14/48/20 4/13/20 18/63/20 22/79/20
f 3/10/21 17/59/21 32/114/21 23/82/21
f 12/40/22 20/70/22 31/112/22 28/100/22
f 1/1/23 37/128/23 13/42/23 30/108/23 23/81/23
f 7/23/24 15/51/24 29/104/24 25/88/24
f 6/20/25 26/92/25 28/101/25 11/37/25
f 20/71/26 10/33/26 27/96/26 31/113/26
f 4/14/27 24/85/27 27/97/27 10/34/27
f 17/59/21 7/24/21 25/89/21 32/114/21
f 15/52/28 8/28/28 26/93/28 29/105/28
f 13/43/29 33/116/29 2/7/29 24/86/29 30/109/29
f 16/55/30 38/131/30 44/152/30 42/143/30
f 38/132/31 6/21/31 41/142/31 44/153/31
f 5/16/32 34/119/32 45/156/32 35/121/32
f 34/120/33 16/56/33 42/144/33 45/157/33
f 40/137/34 46/161/34 37/129/34 1/2/34
f 39/134/35 47/165/35 33/117/35 13/44/35
f 43/148/36 19/67/36 36/126/36 47/166/36
f 47/167/37 39/135/37 49/173/37 56/201/37
f 46/162/38 40/138/38 50/177/38 55/197/38
f 45/158/39 42/145/39 51/181/39 54/194/39
f 42/146/40 44/154/40 53/189/40 51/182/40
f 43/149/41 47/168/41 56/202/41 52/185/41
f 44/155/42 43/150/42 52/186/42 53/190/42
f 39/136/43 46/163/43 55/198/43 49/174/43
f 35/122/44 45/159/44 54/195/44 48/170/44
f 52/187/45 56/203/45 57/206/45
f 54/196/46 51/183/46 57/207/46
f 53/191/47 52/188/47 57/208/47
f 56/204/48 49/175/48 57/209/48
f 55/199/49 50/178/49 57/210/49
f 51/184/50 53/192/50 57/211/50
f 49/176/51 55/200/51 57/212/51
f 59/217/52 48/171/52 57/213/52 50/179/52 58/214/52
f 23/82/53 32/114/53 25/89/53 5/17/53 35/123/53 48/172/53 59/218/53 58/215/53 50/180/53 40/139/53 1/3/53
f 58/216/54 60/220/54 61/221/54 59/219/54
